<svg version="1.1" xmlns="http://www.w3.org/2000/svg" viewBox="0 0 616 380.5" width="616" height="380.5">
  <!-- svg-source:excalidraw -->
  
  <rect x="0" y="0" width="616" height="380.5" fill="#ffffff"></rect><g transform="translate(10 10) rotate(0 298 171)"><path d="M2.8691275167785233 0 L594.386115771812 0.17932046979865773 L596 2.8691275167785233 L595.8206795302012 340.38611577181206 L593.1308724832214 342 L1.6138842281879193 341.8206795302013 L0 339.1308724832215 L0 2.8691275167785233 L0.7172818791946309 0.7172818791946308 L2.8691275167785233 0" stroke="none" stroke-width="0" fill="#ffffff"></path><path d="M2.8691275167785233 0 M2.8691275167785233 0 C217.84263671692833 0, 432.81614591707813 0, 593.1308724832214 0 M593.1308724832214 0 C595.0436241610738 0, 596 0.9563758389261745, 596 2.8691275167785233 M596 2.8691275167785233 C596 87.97187827640782, 596 173.07462903603712, 596 339.1308724832215 M596 339.1308724832215 C596 341.0436241610738, 595.0436241610738 342, 593.1308724832214 342 M593.1308724832214 342 C369.51381484589865 342, 145.89675720857593 342, 2.8691275167785233 342 M2.8691275167785233 342 C0.9563758389261745 342, 0 341.0436241610738, 0 339.1308724832215 M0 339.1308724832215 C0 259.7580787664367, 0 180.38528504965188, 0 2.8691275167785233 M0 2.8691275167785233 C0 0.9563758389261745, 0.9563758389261745 0, 2.8691275167785233 0" stroke="#d7d9dc" stroke-width="1" fill="none"></path></g><g transform="translate(49 72) rotate(0.005729577951308233 103 74)"><path d="M-0.2368112027645111 1.2864313542842865 L204.9279026567936 1.1891460835933685 L207.2706011354923 147.1874113500118 L0.7332764208316802 149.18610996603965" stroke="none" stroke-width="0" fill="#ffc9c9"></path><path d="M0.46024672523941756 1.0586556319246982 C63.885247433893134 1.6193580535220329, 125.86234148739793 0.143219946802291, 206.94523618518258 0.3498773482498479 M0.3617125583439028 0.5546715785333287 C80.94396958715407 -1.046721350262549, 162.090480162777 -0.22801341355734106, 205.49751989018202 -0.06578286396823525 M205.98149361014367 -0.12194475531578063 C204.71368085873127 56.40830420851708, 204.17620393764972 114.21477997899056, 206.07394565939904 147.4309248507023 M205.39028675854206 -0.6678784161806106 C206.54853669524192 54.27670563161373, 206.71419135451316 109.88371338546277, 206.22699683010578 147.56398603618146 M206.66003542864502 146.81763756408304 C163.9735371156549 146.12457180534196, 120.39640833485961 145.72321322314858, -0.8418685266315389 148.4765986489873 M206.00932144612963 148.16307084306328 C136.49139749764316 148.25210877299838, 67.8626020785476 148.46467999419824, 0.6076365559291613 148.0214495765456 M0.3215948522090912 148.50511098504066 C-1.120167202591896 104.0312741458416, 0.023569255232810837 58.58874223828315, -0.5798129618167877 0.6485201418399811 M-0.09345709979534149 147.53233577907085 C1.285291483402252 95.51282897889614, 0.5453980469703674 43.550081822276105, 0.3453586846590042 -0.3909328252077102" stroke="#000000" stroke-width="0.95" fill="none"></path></g><g transform="translate(352.33333333333326 72) rotate(0 100.5 68)"><path d="M-0.1101159632205963 -1.0076606214046477 L201.81414417624472 -1.2464684903621672 L201.91950172781944 135.66790357232094 L-0.6266604959964752 134.87119775414467" stroke="none" stroke-width="0" fill="#a5d8ff"></path><path d="M0.12926860765123366 -0.4354970272993659 C73.98262393057502 0.09192207755551873, 145.6160518408621 -1.258127818532738, 202.1178405280742 -0.5960818099391364 M-0.35720460337227816 -0.5150125832416438 C77.46080096852481 -0.2919398050520291, 156.15204349095902 -0.1455105810166898, 201.43723676898946 0.3080733310518741 M201.08194509148598 -0.8284888803958892 C200.58404440164566 31.683184689283372, 200.62478365182875 60.48708848357201, 199.7399050295353 137.15568069815635 M201.6922341555357 -0.3650781363248825 C202.01759337961673 27.22124529182911, 201.03133782923223 55.891385248303415, 201.24840891063212 135.9465251237154 M200.19597442842883 135.3459034876457 C131.84466632748382 136.10586886528313, 63.579904730152066 136.37414263720268, -0.004666184546642303 137.13202014902936 M200.91572032349478 136.16904421687371 C145.6422712508244 136.13213669799543, 89.16525008056608 136.74729871521436, 0.3214892159932613 135.450758010718 M0.7607830584049224 134.9590122640133 C-0.5919021587371824 101.96047536730767, 0.8178190250396729 69.2053405702114, -0.2368112027645111 1.2864313542842865 M-0.4062943249940872 136.36663821041583 C-0.215564353823662 105.77174525558948, -0.5416819647550585 74.96320789158344, -0.48845575153827664 0.5524174958467483" stroke="#000000" stroke-width="0.95" fill="none"></path></g><g transform="translate(207.5 155.16666666666674) rotate(0 100.5 68)"><path d="M-0.11465353369712829 1.1592749059200287 L202.35898366570473 1.1005272328853606 L200.1500586092472 136.87912697196006 L-0.46193651556968685 137.06245693564415" stroke="none" stroke-width="0" fill="#ffec99"></path><path d="M-0.7206963016993903 -0.16790637127454755 C68.77068404844508 1.7873932974599582, 138.2866658659138 0.45809009510094956, 200.0719339099382 0.6204763860234259 M-0.48153638125159254 0.5341092443718624 C49.64533823606336 -1.52636571805995, 98.47864006799745 -0.6286430393560317, 201.1411109010595 0.23979176329611773 M200.8898840367794 -1.0076606214046477 C201.14984435415266 34.38335707783699, 201.25520190572738 70.92755470871926, 200.37333950400352 134.87119775414467 M201.384385612607 0.4779061526060104 C201.59356868970394 37.16216263473034, 201.91427095639705 73.36724126040937, 200.45498850643634 136.55019418895245 M199.98739874898786 135.77570167325305 C129.62436130786074 136.12528367379232, 54.97510347780781 134.6281071203005, -0.33193866660112376 135.19584369715258 M201.51366565380516 135.72011754936392 C131.92590609783971 136.5541469145132, 61.2938890946184 135.69787324659603, -0.4455882787079524 136.2554567284249 M-1.3421094477176665 134.6348492205143 C-0.14030856513977052 92.2268069088459, -0.021706384658813582 51.352022653818125, 0.5435799062252045 0.34565339684486385 M0.0720406800508499 135.8756667345762 C1.0378246821165085 97.27271232306956, 1.1557132281064986 57.6724159926176, -0.5470475882291793 0.2658685892820358" stroke="#000000" stroke-width="0.95" fill="none"></path></g><g transform="translate(528.1923828125 368) rotate(0 38.90380859375 6.25)"><text x="77.8076171875" y="10" font-family="var(--view-mode-font)" font-size="16px" fill="#adb5bd" text-anchor="end" style="white-space: pre;" direction="ltr">Made with Eraser</text></g></svg>