<svg version="1.1" xmlns="http://www.w3.org/2000/svg" viewBox="0 0 369 274.5" width="369" height="274.5">
  <!-- svg-source:excalidraw -->
  
  <rect x="0" y="0" width="369" height="274.5" fill="#ffffff"></rect><g transform="translate(10 10) rotate(0 174.5 118)"><path d="M3.3810888252149 0 L345.6189111747851 0 L348.15472779369634 0.845272206303725 L349 3.3810888252149 L349 232.6189111747851 L348.15472779369634 235.15472779369628 L345.6189111747851 236 L3.3810888252149 236 L0.845272206303725 235.15472779369628 L0 232.6189111747851 L0 3.3810888252149 L0.845272206303725 0.845272206303725 L3.3810888252149 0" stroke="none" stroke-width="0" fill="#ffffff"></path><path d="M3.3810888252149 0 M3.3810888252149 0 C91.63151283486053 0, 179.88193684450616 0, 345.6189111747851 0 M345.6189111747851 0 C347.87297039159506 0, 349 1.1270296084049667, 349 3.3810888252149 M349 3.3810888252149 C349 78.91131725076127, 349 154.44154567630764, 349 232.6189111747851 M349 232.6189111747851 C349 234.87297039159503, 347.87297039159506 236, 345.6189111747851 236 M345.6189111747851 236 C242.83811857861878 236, 140.0573259824524 236, 3.3810888252149 236 M3.3810888252149 236 C1.1270296084049667 236, 0 234.87297039159503, 0 232.6189111747851 M0 232.6189111747851 C0 160.74692464393473, 0 88.8749381130844, 0 3.3810888252149 M0 3.3810888252149 C0 1.1270296084049667, 1.1270296084049667 0, 3.3810888252149 0" stroke="#d7d9dc" stroke-width="1" fill="none"></path></g><g transform="translate(43 33) rotate(0 74 49)"><path d="M0.6660252558067441 -0.2948769526556134 C44.07601152788848 0.3326210108213127, 87.68445837888868 0.741001191418618, 148.44136965740472 -0.6452674167230725 M0.1867248467169702 0.3950758748687804 C48.496160727273676 0.557047755792737, 97.86578251710162 -0.1784192758053541, 147.55949037289247 0.1597898923791945 M148.09746206272393 0.5912297470495105 C147.2621815455798 34.475907978788015, 148.14387142189779 68.19867043141275, 147.17792597878724 97.66492203902453 M148.12027054047212 -0.4207408702932298 C148.0348833513353 23.75970300761983, 147.6926485759113 47.771966896671806, 147.51673821127042 98.47019623452798 M147.34334913361818 98.8060288829729 C108.08407774772495 97.59015870446339, 68.20448031965643 98.38191786760464, 0.6833087848499417 97.99835349153727 M148.12979880487546 97.51811014348641 C95.57816429613158 97.33692561607808, 43.4311676009558 97.7033939711377, 0.4582785568200052 97.56421625846997 M-0.9341736389324069 98.50427509378642 C-0.4323214647267014 62.4439712755382, -0.4504595455620438 27.95362423676997, -0.7895217193290591 0.9970862669870257 M0.03731586551293731 98.27414417499676 C-0.01809075345285238 65.62991620441899, 0.08478193114511667 32.55557587193326, 0.465394978877157 0.08102537924423814" stroke="#000000" stroke-width="0.9" fill="none"></path></g><g transform="translate(85 61) rotate(0 73.5 49.5)"><path d="M-0.17765587102621794 0.3734496934339404 C35.4047207239084 -0.3439714996190742, 70.08030277080834 0.8180622072843835, 146.3802307592705 -0.8810192542150617 M-0.14263121271505952 0.048731031361967325 C49.09343770947307 -0.39103266452904795, 97.998228307534 0.049812273629941006, 147.4285925081931 -0.4110370106063783 M147.49317893851548 0.2405410809442401 C145.88713240723592 27.217628337349744, 146.19380340080244 52.9158869728446, 146.4355002688244 98.03347642254084 M147.15810055052862 -0.328325433190912 C147.2470269723842 38.919990435987714, 146.52209747573826 77.8581432840787, 147.07396452641115 99.34165439242497 M146.6273592757061 99.25959760975093 C101.9604239613749 98.4015871116938, 58.07376685291527 98.34073759410995, -0.0417037857696414 99.91655711364001 M146.95963483070955 98.5329131805338 C115.96417954787611 99.37458652549888, 84.11959315771236 99.36551748508121, -0.07614084566012025 98.60523914033547 M-0.3053577793762088 99.07463173102587 C0.3744474532874301 59.85578849436715, 0.7693886342318729 20.490379820391524, 0.47794598806649446 0.930789957754314 M-0.31201824033632874 98.56752072507516 C-0.381400580802001 67.74198124501854, -0.011228720941580783 36.0035260583274, 0.17918886756524444 -0.3741737580858171" stroke="#000000" stroke-width="0.9" fill="none"></path></g><g transform="translate(149 101) rotate(0 82 46.5)"><path d="M0.8571850163862109 -0.8220740212127566 C36.58328720051795 -0.6571582034789025, 73.05598190631717 0.3842749818600715, 164.24054108094424 -0.8414817405864596 M-0.28224986558780074 -0.48326178872957826 C63.36255871104077 -0.28091619223356246, 126.05631986716763 0.034747458398342146, 163.6716745668091 0.40301444148644805 M164.1479290528223 0.6833087848499417 C163.69897249023896 26.749342853110285, 163.7171015111683 52.08326499052346, 164.25959760975093 92.03622028697282 M163.97914810711518 0.4582785568200052 C163.20400842788163 22.505106528662147, 163.94119383158628 44.40382268028334, 163.5329131805338 93.25213754689321 M163.84771830867976 92.21047828067094 C118.04303077403455 93.22402327908203, 70.56446456965058 92.56747176898644, 0.07463173102587461 93.54828834999353 M164.23897299403325 93.46539497887716 C107.87916776360944 93.69488558214158, 51.226304614637044 93.20678584318608, -0.4324792749248445 92.79292010283098 M0.3583777351304889 92.25165248382837 C0.36537135374266655 64.60902058789506, -0.7853667365340515 34.569787015020836, -0.14397691655904055 0.0902607785537839 M0.24089239770546556 93.11692964052781 C0.7549337561568246 55.73799993023276, 0.05377134339418266 18.931386866513634, 0.20519995922222733 0.20723161613568664" stroke="#000000" stroke-width="0.9" fill="none"></path></g><g transform="translate(281.1923828125 262) rotate(0 38.90380859375 6.25)"><text x="77.8076171875" y="10" font-family="var(--view-mode-font)" font-size="16px" fill="#adb5bd" text-anchor="end" style="white-space: pre;" direction="ltr">Made with Eraser</text></g></svg>