<svg version="1.1" xmlns="http://www.w3.org/2000/svg" viewBox="0 0 661 425.5" width="661" height="425.5">
  <!-- svg-source:excalidraw -->
  
  <rect x="0" y="0" width="661" height="425.5" fill="#ffffff"></rect><g transform="translate(10 10) rotate(0 320.5 193.5)"><path d="M3.0187207488299532 0 L637.98127925117 0 L640.2453198127926 0.7546801872074882 L641 3.0187207488299532 L641 383.98127925117006 L640.2453198127926 386.2453198127925 L637.98127925117 387 L3.0187207488299532 387 L0.7546801872074882 386.2453198127925 L0 383.98127925117006 L0 3.0187207488299532 L0.7546801872074882 0.7546801872074882 L3.0187207488299532 0" stroke="none" stroke-width="0" fill="#ffffff"></path><path d="M3.0187207488299532 0 M3.0187207488299532 0 C254.68102402208976 0, 506.3433272953495 0, 637.98127925117 0 M637.98127925117 0 C639.99375975039 0, 641 1.0062402496099843, 641 3.0187207488299532 M641 3.0187207488299532 C641 79.77632051088038, 641 156.53392027293083, 641 383.98127925117006 M641 383.98127925117006 C641 385.99375975039004, 639.99375975039 387, 637.98127925117 387 M637.98127925117 387 C395.9379880045501 387, 153.89469675793026 387, 3.0187207488299532 387 M3.0187207488299532 387 C1.0062402496099843 387, 0 385.99375975039004, 0 383.98127925117006 M0 383.98127925117006 C0 274.0019672181036, 0 164.02265518503714, 0 3.0187207488299532 M0 3.0187207488299532 C0 1.0062402496099843, 1.0062402496099843 0, 3.0187207488299532 0" stroke="#d7d9dc" stroke-width="1" fill="none"></path></g><g transform="translate(50 46) rotate(0 107.5 59)"><path d="M-0.4065368231385946 1.2610102768987417 L216.02707617916167 1.1942443128675222 L215.96722642816604 116.98691400252282 L-0.6741842206567525 118.8534846778959" stroke="none" stroke-width="0" fill="#ffc9c9"></path><path d="M0.2851297236548557 -0.16265825645626927 C70.33182672430647 1.0490078442965078, 140.65667305944447 2.174335863545136, 214.2342611602304 -1.01235531780218 M-0.4107432919939226 0.2260609613554067 C85.49452811492053 -0.6928295208102861, 170.67117882503857 -0.9508263301191249, 215.57031242192008 -0.21810069647833624 M214.46587439738215 -0.3769639667123556 C216.31653460061924 47.673216693848374, 215.8133180598058 93.85472708158196, 214.18319010697306 119.36965369619429 M215.3663022847846 -0.22241116184741258 C215.90288083409143 42.85602626297623, 214.8976092026122 86.2263275107369, 215.3388601930812 117.52038022261112 M216.15832927234993 117.15162880410921 C149.39903771364007 117.31104323271481, 80.72830796568611 117.42148797685662, -0.4939870813302381 117.83652990806786 M214.82535057000422 117.67759027303511 C144.74822007177855 118.85195913316595, 74.68197615659047 118.75953791783142, 0.4023515547052434 118.15841317681178 M0.8484609480947256 118.45842548049987 C0.39496703013405204 71.06418501883745, 0.8336732493303716 25.318193229660388, -1.0545488122850655 -0.1257178124040365 M0.21563420016318557 117.87847607713192 C0.6433951872847973 91.0886090921238, 0.22164825978502622 62.735076144896446, 0.3555630953982472 -0.6138220312073827" stroke="#000000" stroke-width="0.95" fill="none"></path></g><g transform="translate(217 127) rotate(0 103.5 67)"><path d="M0.48296822748577084 0.2908248056462052 C75.56295351948293 -0.7081100508005319, 151.64292904358916 -0.9179266130687604, 208.2169807309108 0.8193072346130039 M0.3430474215649153 0.3224839600278567 C43.76601320394518 0.32900137758161996, 86.9301533107714 0.9549156589034935, 207.4235307203841 0.23493022087336046 M208.1816129270941 -1.162396240606904 C206.66191472574698 31.667441938072447, 208.1685654477738 64.96812934465707, 207.14745132364334 134.022843587026 M207.66486056428403 -0.11570144575089215 C207.46248981336876 35.19696689154953, 207.60469028929992 70.40569560024888, 207.19010090809314 133.3609345646575 M207.17672010701142 133.16161994885096 C125.74720864642619 132.2964015583228, 43.851049309727365 133.6440957266863, 1.1312700992346665 133.7913265565879 M207.11386720452197 133.64382627971196 C136.57356128613154 134.23759140591838, 65.06130139145466 134.36563709966364, -0.41062965138510926 133.45446246939017 M-0.1625615295022726 135.39240939579904 C-1.2950052127204834 89.36712277084588, 0.42217636257782576 43.70553205348551, -0.4065368231385946 1.2610102768987417 M-0.5065429987385869 133.66290788967163 C-0.37340135067328817 83.64885707031935, -0.18987816661223778 33.265888595022254, -0.6303814055398106 -0.14082681220024823" stroke="#000000" stroke-width="0.95" fill="none"></path></g><g transform="translate(376 231) rotate(0 106 61)"><path d="M0.6796579713222606 0.6389168968437401 C44.937574908465095 0.31679437509198666, 88.68269704665362 1.5568784099004362, 212.83911439676697 0.46545225902787846 M0.5198933816630109 -0.5114383047989174 C51.786782862652984 -0.15541156715649063, 104.60118915975953 -0.007134916775719424, 212.06487654757478 0.01005086304993905 M213.32972112856805 -0.2314028915017843 C211.95857113730534 31.98770217746497, 212.24297208916767 63.99892798922958, 212.38020181618631 120.72186912931502 M212.0994702430442 -0.47189801353961225 C212.16746943151577 47.7409330861643, 212.21632606541738 96.81796687599272, 212.63675669748335 121.8825442193076 M212.2255978280568 121.29433573042184 C140.16790979084465 122.06328890718522, 66.1845513471098 122.31697767141048, -0.8135543317947904 120.9191612936689 M211.9284751703681 122.61264091890192 C141.10150375531956 121.72952872640019, 71.40119419228112 121.23314563413066, -0.17887059197282232 122.55482711989363 M-1.0130859974771738 121.32581577934324 C0.12499564704671495 75.80865143761038, 0.49204201516881574 29.553651783987863, -1.2607628110796212 -0.28165362440049646 M-0.5491211203858256 121.57439785581082 C-1.2297663018517193 76.19045029673725, -0.7529025420956312 29.91361314263194, 0.038983586616814135 0.17670958023518324" stroke="#000000" stroke-width="0.95" fill="none"></path></g><g transform="translate(573.1923828125 413) rotate(0 38.90380859375 6.25)"><text x="77.8076171875" y="10" font-family="var(--view-mode-font)" font-size="16px" fill="#adb5bd" text-anchor="end" style="white-space: pre;" direction="ltr">Made with Eraser</text></g></svg>