<svg version="1.1" xmlns="http://www.w3.org/2000/svg" viewBox="0 0 326 265.5" width="326" height="265.5">
  <!-- svg-source:excalidraw -->
  
  <rect x="0" y="0" width="326" height="265.5" fill="#ffffff"></rect><g transform="translate(10 10) rotate(0 153 113.5)"><path d="M3.7091503267973858 0 L302.2908496732026 0 L305.0727124183006 0.9272875816993463 L306 3.7091503267973858 L306 223.29084967320262 L305.0727124183006 226.07271241830063 L302.2908496732026 227 L3.7091503267973858 227 L0.9272875816993464 226.07271241830063 L0 223.29084967320262 L0 3.7091503267973858 L0.9272875816993463 0.9272875816993464 L3.7091503267973858 0" stroke="none" stroke-width="0" fill="#ffffff"></path><path d="M3.7091503267973858 0 M3.7091503267973858 0 C97.20449668248277 0, 190.69984303816815 0, 302.2908496732026 0 M302.2908496732026 0 C304.7636165577342 0, 306 1.236383442265795, 306 3.7091503267973858 M306 3.7091503267973858 C306 67.66023875627351, 306 131.61132718574964, 306 223.29084967320262 M306 223.29084967320262 C306 225.7636165577342, 304.7636165577342 227, 302.2908496732026 227 M302.2908496732026 227 C204.63542946844538 227, 106.98000926368815 227, 3.7091503267973858 227 M3.7091503267973858 227 C1.236383442265795 227, 0 225.7636165577342, 0 223.29084967320262 M0 223.29084967320262 C0 161.79656965603527, 0 100.30228963886795, 0 3.7091503267973858 M0 3.7091503267973858 C0 1.236383442265795, 1.236383442265795 0, 3.7091503267973858 0" stroke="#d7d9dc" stroke-width="1" fill="none"></path></g><g transform="translate(38 32) rotate(0 51.5 40)"><path d="M0.4757982026785612 -0.7449585031718016 C37.99847733471543 -0.20752546480856837, 75.70409218147398 0.803538528168574, 103.99332929961383 0.9986216593533754 M-0.11796971317380667 0.4839753871783614 C35.67693654857576 0.8170738665293902, 71.1431465594098 0.20455725471489133, 102.95173353794962 0.1296103661879897 M103.35756088607013 -0.17846850864589214 C101.905641752854 31.204969676211476, 102.66981102861465 61.17186008580029, 103.49729771725833 79.05810977704823 M102.8448550188914 -0.003383093513548374 C103.0622711153701 23.66254850383848, 102.89484473783523 47.96026167925447, 103.08839497808367 79.9139870768413 M102.34781165234745 80.21627046354115 C70.24570974837988 79.32209045774303, 37.752691020071495 80.65720153934322, 0.5913826357573271 80.63121064193547 M102.64157352689654 80.39571682270616 C80.30711111947895 79.86703671229071, 58.799042793177065 79.55370871436781, -0.177469483576715 80.3705582683906 M-0.6650827992707491 79.78819640167058 C-0.3332322400063277 52.476026179268956, -0.8672921817749739 25.377801345661283, 0.3182476293295622 0.13131536729633808 M-0.21838425751775503 80.37350536044687 C0.1659604983404278 49.741393498145044, -0.2798720223829151 20.167027569375925, 0.03954664710909128 -0.043797397054731846" stroke="#000000" stroke-width="0.9" fill="none"></path></g><g transform="translate(106 90) rotate(0 50.5 33)"><path d="M0.8904781471937895 0.27064319141209126 L101.21749265305698 0.587855713441968 L101.3831435572356 66.72265131957829 L-0.8981526363641024 65.27409006841481" stroke="none" stroke-width="0" fill="#b2f2bb"></path><path d="M0.013198988512158394 -0.87162552960217 C40.09668649975211 0.7325608577299864, 80.61708082556726 0.5009835209418089, 100.48220487125218 -0.48865978606045246 M-0.3012217516079545 -0.27517186757177114 C29.50379790961743 -0.5154403773788363, 58.2233445102349 -0.19961136856116357, 100.9553942149505 -0.16585012432187796 M101.91894526965916 0.40711171738803387 C100.3788862642087 23.07539874687791, 100.07856224143877 45.21666055358946, 100.05453325994313 65.37499071471393 M100.95835656579584 -0.17021246906369925 C100.61713729688898 21.074948942475025, 100.73900426814333 41.68233207184822, 100.72218135651201 66.41626019123942 M100.8206651378423 65.32686878554523 C64.01018243264406 66.3717265632283, 27.747568456083528 66.00769149328582, 0.9566365052014589 65.80074257962406 M101.45217160042375 65.77532405499369 C73.95234216861427 66.11445341811515, 47.58401965666562 66.20375616655684, -0.25277745071798563 66.17967639211565 M0.7782340813428164 66.13734049908817 C-0.48010258624330165 44.846576367318626, 0.9111741905473172 21.267434473708263, 0.06284322030842304 -0.49491249211132526 M-0.4205151731148362 66.31207857374102 C0.37373933477327226 46.11427196767181, 0.07293212695047258 25.527527411468327, 0.31942770536988974 0.09476590994745493" stroke="#000000" stroke-width="0.9" fill="none"></path></g><g transform="translate(177 143) rotate(0 57.50000000000001 34.5)"><path d="M-0.8533808458596468 0.4531895089894533 C28.081835475750275 -0.2290808561723679, 56.839391808956876 -0.8392708304803818, 115.01704789511861 0.9189452696591616 M-0.30530699249356985 -0.47383465711027384 C38.70905137993396 -0.3086140851024538, 78.45196447800846 -0.08212236561812458, 115.07018620613964 -0.04164343420416117 M114.59154559485616 -0.502590699121356 C114.2193577330839 19.183588309399784, 115.3663776558172 37.33334649577737, 114.16889686696233 68.8206651378423 M114.64674884919079 0.21369928773492575 C115.23100398615935 15.955765910074117, 114.5752162499819 32.48134750891477, 115.21817348245533 69.45217160042375 M115.02850504033269 68.96680189855397 C85.16199183370918 69.23756571519189, 56.653341099619865 69.00952829825692, 0.7240947615355253 69.77823408134282 M115.47725413087757 68.53415159042925 C78.95200587064028 69.18207491845824, 42.880715168081224 69.38573376745917, -0.1441532289609313 68.57948482688516 M0.08805168978869915 69.34311779029667 C0.4009206043649465 44.18284750226885, 0.6525433408189565 19.25727455615997, 0.21749265305697918 0.587855713441968 M-0.36295496579259634 68.80084622558206 C-0.6011596334818751 45.74977899193764, -0.3813007784727961 22.21287859026343, 0.4350188160315156 -0.2067313427105546" stroke="#000000" stroke-width="0.9" fill="none"></path></g><g transform="translate(238.1923828125 253) rotate(0 38.90380859375 6.25)"><text x="77.8076171875" y="10" font-family="var(--view-mode-font)" font-size="16px" fill="#adb5bd" text-anchor="end" style="white-space: pre;" direction="ltr">Made with Eraser</text></g></svg>