<svg version="1.1" xmlns="http://www.w3.org/2000/svg" viewBox="0 0 317 219.5" width="317" height="219.5">
  <!-- svg-source:excalidraw -->
  
  <rect x="0" y="0" width="317" height="219.5" fill="#ffffff"></rect><g transform="translate(10 10) rotate(0 148.5 90.5)"><path d="M3.047138047138047 0 L293.95286195286195 0 L296.23821548821553 0.7617845117845119 L297 3.047138047138047 L297 177.95286195286195 L296.23821548821553 180.23821548821547 L293.95286195286195 181 L3.047138047138047 181 L0.7617845117845119 180.23821548821547 L0 177.95286195286195 L0 3.047138047138047 L0.7617845117845119 0.7617845117845119 L3.047138047138047 0" stroke="none" stroke-width="0" fill="#ffffff"></path><path d="M3.047138047138047 0 M3.047138047138047 0 C69.04387132857867 0, 135.0406046100193 0, 293.95286195286195 0 M293.95286195286195 0 C295.98428731762067 0, 297 1.0157126823793492, 297 3.047138047138047 M297 3.047138047138047 C297 59.282112279289436, 297 115.51708651144082, 297 177.95286195286195 M297 177.95286195286195 C297 179.98428731762064, 295.98428731762067 181, 293.95286195286195 181 M293.95286195286195 181 C195.39965696079682 181, 96.84645196873169 181, 3.047138047138047 181 M3.047138047138047 181 C1.0157126823793492 181, 0 179.98428731762064, 0 177.95286195286195 M0 177.95286195286195 C0 125.08498493425378, 0 72.21710791564563, 0 3.047138047138047 M0 3.047138047138047 C0 1.0157126823793492, 1.0157126823793492 0, 3.047138047138047 0" stroke="#d7d9dc" stroke-width="0.95" fill="none"></path></g><g transform="translate(21 28) rotate(0 50 50)"><path d="M51.81629009677252 -0.4137419771103552 C59.72243916876934 -0.8784299455242592, 69.40505256198765 3.356179512403643, 76.53161480780346 7.829032442969364 C83.65817705361928 12.301885373535086, 90.60664249536639 19.060686464952028, 94.57566357166743 26.423375606283972 C98.54468464796848 33.78606474761592, 100.72121384179977 43.68305868001376, 100.34574126560972 52.00516729096104 C99.97026868941967 60.32727590190832, 96.86316772862054 69.29797999907703, 92.32282811452718 76.35602727196766 C87.78248850043383 83.4140745448583, 80.49556204344174 90.34780699991678, 73.10370358104961 94.35345092830485 C65.7118451186575 98.35909485669292, 56.29725184200611 100.65142460011081, 47.97167734017444 100.38989084229604 C39.64610283834276 100.12835708448127, 30.12836773595047 97.20835559040336, 23.15025657005955 92.78424838141623 C16.17214540416863 88.36014117242911, 9.900638433958154 81.23038629265223, 6.103010344828917 73.84524758837333 C2.3053822556996804 66.46010888409442, 0.1518684715764221 56.87329030101159, 0.36448803528413265 48.47341615574285 C0.5771075989918432 40.0735420104741, 2.9918286778526726 30.566890203029754, 7.37872772707518 23.446002716760848 C11.765626776297687 16.325115230491942, 19.014486172523895 9.567767129125462, 26.685882330619176 5.748091238129405 C34.357278488714456 1.9284153471333472, 48.71841974284867 1.278163388233454, 53.407104675646856 0.5279473707845028 C58.095789608445045 -0.22226864666444845, 54.937036539639806 0.5355746461257999, 54.81799192740833 1.2467951334356968 M54.83831151057623 -0.45458651520562654 C62.8890282209058 -0.42659764325992217, 71.89978565296276 4.519453858423581, 78.72165076981199 9.399183840364273 C85.54351588666121 14.278913822304965, 92.2184273466871 21.23248329085222, 95.76950221167155 28.82379337643853 C99.32057707665601 36.41510346202484, 100.91763548013016 46.534564545211246, 100.0280999597187 54.947044353882134 C99.13856443930725 63.35952416255302, 95.2139991136011 72.48907233189908, 90.43228908920284 79.29867222846384 C85.65057906480457 86.1082721250286, 78.8522900671054 92.27993273282729, 71.33783981332908 95.8046437332707 C63.82338955955277 99.3293547337141, 53.72055614570077 101.2275374566224, 45.345587566544964 100.44693823112425 C36.97061898738916 99.6663390056261, 27.83562283430134 96.13363486535144, 21.08802833839423 91.12104838028175 C14.340433842487123 86.10846189521206, 8.277357996307993 78.07180842452763, 4.8600205911023195 70.37141932070611 C1.4426831858966458 62.671030216884596, -0.20224238159327734 53.20569492846652, 0.5840039071601879 44.91871375735266 C1.3702501959136533 36.631732586238805, 4.851054783843034 27.477611195090038, 9.57749832362311 20.649532294022976 C14.303941863403189 13.821453392955913, 21.428241222416162 7.245943764556889, 28.94266514584065 3.9502403509502955 C36.45708906926514 0.6545369373437011, 50.43094772514136 1.409578216442101, 54.664041864170045 0.8753118123834085 C58.89713600319873 0.3410454083247162, 54.515815855527606 -0.0887196556852956, 54.34122998001277 0.7446419265981419" stroke="#000000" stroke-width="0.9" fill="none"></path></g><g transform="translate(76 28) rotate(0 50 50)"><path d="M44.3176176887124 0.5081590089441761 C52.00193786399985 -1.0559147747105264, 62.23612326406408 0.9171589269301443, 69.84205945218034 4.203426320447228 C77.4479956402966 7.4896937139643125, 84.9254381654354 13.500083428719353, 89.95323481740998 20.22576337004668 C94.98103146938456 26.951443311374003, 99.05557223053 36.19715608999785, 100.00883936402784 44.55750596841118 C100.96210649752567 52.91785584682451, 99.14027984648337 62.81692295202829, 95.67283761839698 70.38786264052666 C92.2053953903106 77.95880232902503, 85.9347025756054 85.02029726786583, 79.20418599550956 89.98314409940139 C72.47366941541372 94.94599093093694, 63.40786705816135 99.1781514962263, 55.289738137821956 100.16494362974004 C47.17160921748256 101.15173576325377, 38.10270837268019 99.3247783543233, 30.495412473473205 95.90389690048377 C22.88811657426622 92.48301544664425, 14.629065219231775 86.43279783871155, 9.64596274258004 79.6396549067029 C4.662860265928304 72.84651197469425, 1.5560879255585838 63.41690512806771, 0.5967976135627922 55.145039308431876 C-0.36249269843299936 46.87317348879604, 0.5421107275720467 37.5251439434989, 3.8902208706052903 30.008459988887882 C7.238331013638534 22.491776034276864, 13.811137862828868 15.046817754529307, 20.685458471762253 10.044935580765774 C27.559779080695638 5.0430534070022395, 40.80647154653461 1.5554150704222565, 45.136144524205605 -0.0028330536933225403 C49.4658175018766 -1.5610811778089015, 46.517366500547965 -0.1518459390256256, 46.663496337788246 0.6954468360722998 M40.69741973778247 1.5080607774860724 C48.23878696891893 -0.6096998117839463, 58.683468104645605 0.9058343972576637, 66.70081180207828 3.572657543097087 C74.71815549951094 6.23948068893651, 83.3839573208229 11.349033534511655, 88.80148192237849 17.50899965252261 C94.21900652393407 23.668965770533568, 97.88303243005114 32.250786705596305, 99.20595941141178 40.53245425116283 C100.52888639277242 48.81412179672936, 99.6314553972768 59.24640142435951, 96.73904381054228 67.19900492592178 C93.84663222380777 75.15160842748406, 88.15273582564322 82.88644028035787, 81.85148989100476 88.24807526053647 C75.5502439563663 93.60971024071506, 66.91339541720048 97.92790306880536, 58.93156820271153 99.36881480699336 C50.94974098822258 100.80972654518135, 41.733326853413175 99.70358605640625, 33.960526604071056 96.89354568966439 C26.187726354728937 94.08350532292253, 17.700761490037184 88.86268549181177, 12.29476670665882 82.50857260654217 C6.888771923280454 76.15445972127257, 3.006087227171043 66.94418706632975, 1.5245579038008614 58.76886837804682 C0.04302858043068025 50.59354968976388, 0.6974892434229858 41.24034979443258, 3.405590766437733 33.456660476844576 C6.11369228945248 25.67297115925657, 11.565346485454274 17.414798708633995, 17.773167041889344 12.066732472518773 C23.980987598324415 6.718666236403549, 36.71347733494475 2.9722922515914965, 40.652514105048155 1.3682630601532324 C44.59155087515156 -0.23576613128503143, 41.30434377344311 1.6836531581017353, 41.40738766250978 2.44255732388919" stroke="#000000" stroke-width="0.9" fill="none"></path></g><g transform="translate(135 28) rotate(0 50 50)"><path d="M44.60353967222934 0.4686337596782195 C52.403684472748196 -0.930774434899412, 63.16454074160914 1.414269378909188, 70.88520055686888 4.8412380156824355 C78.60586037212862 8.268206652455683, 86.05792757469484 14.313601748632816, 90.9274985637878 21.030445580317704 C95.79706955288074 27.74728941200259, 99.37035310168854 36.90769088896925, 100.1026264914266 45.14230100579176 C100.83489988116467 53.37691112261427, 98.86702095108357 62.93134672413676, 95.32113890221622 70.43810628125276 C91.77525685334886 77.94486583836876, 85.6246265779064 85.24119690251169, 78.82733419822245 90.18285834848776 C72.03004181853849 95.12451979446382, 62.841729075880714 99.14226181798716, 54.537384624112526 100.08807495710917 C46.23304017234434 101.03388809623118, 36.540110317663284 99.29701275856176, 29.001267487613326 95.85773718321977 C21.462424657563364 92.41846160787777, 14.075463618419409 86.2793477346004, 9.304327643812762 79.45242150505722 C4.533191669206115 72.62549527551403, 1.2274853811309705 63.187046624332055, 0.37445163997344366 54.89617980596066 C-0.4785821011840833 46.60531298758926, 0.7074836146744143 37.31188031408534, 4.1861251968676 29.70722059482881 C7.664766779060786 22.102560875572284, 14.203824140725438 14.132518906581428, 21.246301133132558 9.268221490421482 C28.28877812553968 4.4039240742615355, 42.12024316721882 1.9519358682180652, 46.44098715131032 0.5214360978691346 C50.76173113540182 -0.909063672479796, 47.10163997024989 -0.14039620528277064, 47.170765037681555 0.685222868327898 M40.98948782582606 1.3868198842560204 C48.68922258069097 -0.6699926488972423, 60.02184326994036 -0.46085808900311775, 67.82749699849238 2.4270496454117136 C75.6331507270444 5.314957379826545, 82.59834397808466 12.309181012035072, 87.82341019713816 18.71426629074501 C93.04847641619166 25.119351569454945, 97.67393474462365 32.695241803831124, 99.17789431281338 40.857561317671326 C100.68185388100311 49.01988083151153, 99.62939237159803 59.846402778297545, 96.84716760627653 67.68818337378625 C94.06494284095503 75.52996396927495, 88.76175030711228 82.74760007197784, 82.48454572088434 87.90824489060353 C76.2073411346564 93.06888970922921, 67.58619583531593 97.05938501697888, 59.1839400889089 98.65205228554035 C50.78168434250186 100.24471955410182, 39.93009089398397 100.2748848792085, 32.07101124244211 97.46424850197236 C24.21193159090025 94.65361212473623, 17.2888460262604 88.2395187268884, 12.029462179657727 81.78823402212352 C6.770078333055053 75.33694931735863, 2.1111628297258562 66.9997696205353, 0.5147081628260608 58.75654027338307 C-1.0817465040737346 50.51331092623083, -0.4829267818400331 40.19408043054135, 2.450734178258955 32.328857939210096 C5.384395138357943 24.46363544787884, 11.653223553028571 16.955602788917737, 18.116673923419988 11.565205325395539 C24.580124293811405 6.17480786187334, 37.23636573163032 1.7259889747643247, 41.231436400607464 -0.01352684192309539 C45.226507069584606 -1.7530426586105154, 41.7741079846841 0.28710818944290395, 42.08709793728283 1.128110425271018" stroke="#000000" stroke-width="0.9" fill="none"></path></g><g transform="translate(194 28) rotate(0 50 50)"><path d="M47.89086009571961 -0.35526120934682837 C55.76800928479084 -1.4479244496307153, 66.11472613520766 1.978066059907949, 73.42574824795459 5.917885300357497 C80.73677036070151 9.857704540807045, 87.40644203767053 16.384559124543664, 91.75699277220119 23.28365423335046 C96.10754350673184 30.18274934215726, 99.01229670242247 38.97537211440816, 99.52905265513854 47.312455953198274 C100.04580860785461 55.64953979198839, 98.69014368905557 65.91187144817007, 94.85752848849759 73.30615726609113 C91.02491328793961 80.70044308401219, 83.54858778681914 87.24951357383154, 76.53336145179063 91.67817086072463 C69.51813511676211 96.10682814761773, 61.09286729382661 99.42870528687564, 52.766170478326494 99.87810098744976 C44.43947366282638 100.32749668802387, 34.00935342161763 98.1328881188997, 26.573180558789957 94.37454506416933 C19.13700769596228 90.61620200943895, 12.629389852398432 84.25660639365825, 8.149133301360429 77.32804265906753 C3.6688767503224247 70.39947892447682, 0.18843242089422557 61.25347283960322, -0.3083587474380707 52.803162656625055 C-0.805149915770367 44.35285247364689, 1.2179647257160773 34.05608466111284, 5.168386291366652 26.626181561198546 C9.118807857017226 19.19627846128425, 15.883337030700396 12.684022430231009, 23.394170646465376 8.223744057139292 C30.905004262230356 3.763465684047576, 45.273419735965085 1.1252678989770075, 50.23338798595653 -0.13548867735175207 C55.19335623594798 -1.3962452536805117, 53.17969265981368 -0.20551040033099355, 53.15398014641405 0.6592045991667348 M50.64622861441352 -0.5765015037375463 C58.7388451310048 -1.234987711546244, 68.76434089462006 1.8540677521487492, 75.95503561708865 6.221534042122215 C83.14573033955725 10.589000332095681, 89.88811704097093 18.248810283249878, 93.79039694922507 25.62829623610325 C97.69267685747921 33.007782188956625, 99.47498276478653 42.20018362510891, 99.36871506661353 50.498449759242455 C99.26244736844053 58.796715893375996, 97.25808375513947 68.38226264794089, 93.15279076018706 75.41789304090452 C89.04749776523465 82.45352343386814, 81.92569996103023 88.66521995700671, 74.73695709689909 92.7122321170242 C67.54821423276795 96.75924427704169, 58.34320772554784 99.70031265423675, 50.0203335754002 99.69996600100947 C41.69745942525256 99.69961934778219, 32.113753858164785 96.90774392382076, 24.799712196013232 92.7101521976605 C17.48567053386168 88.51256047150025, 10.273293683307642 81.70826136612646, 6.136083602490892 74.51441564404797 C1.9988735216741418 67.32056992196948, -0.1693957212664626 57.79199413186001, -0.023548288887269564 49.54707786518958 C0.12229914349192347 41.30216159851915, 2.9044228899402142 32.22600199436109, 7.01116819676605 25.044918044025373 C11.117913503591886 17.86383409368965, 17.366848596247486 10.696188398173486, 24.616923552067746 6.460574163175252 C31.866998507888006 2.224959928177018, 46.36088693947234 0.5668709442418928, 50.51161793168761 -0.3687673659640325 C54.66234892390288 -1.3044056761699578, 49.49114410873502 -0.01174861776070324, 49.521309505359405 0.846744301939701" stroke="#000000" stroke-width="0.9" fill="none"></path></g><g transform="translate(70 72) rotate(0 50 50)"><path d="M61.11955440187098 1.5067602026818605 C69.06718826850222 2.586161471218688, 78.18900626667256 7.446254240579112, 84.38163659970544 13.007562917293328 C90.57426693273833 18.568871594007543, 95.95015868755186 26.78738247157134, 98.27533640006824 34.874612262967155 C100.60051411258462 42.96184205436297, 100.2201075310016 53.35713890940746, 98.3327028748037 61.530941665668195 C96.4452982186058 69.70474442192892, 92.57804315824637 77.84085187985664, 86.95090846288083 83.91742880053155 C81.32377376751529 89.99400572120646, 72.65964942623181 95.55920787769809, 64.56989470261045 97.99040318971767 C56.4801399789891 100.42159850173725, 46.5041664888382 100.39610055537318, 38.41238012115271 98.50460067264902 C30.320593753467215 96.61310078992486, 22.087642973421374 92.35588100001793, 16.01917649649748 86.64140389337271 C9.950710019573584 80.92692678672749, 4.420040171660451 72.24841723198946, 2.0015812596093383 64.21773803277772 C-0.4168776524417752 56.18705883356598, -0.4659502824276025 46.56740700607949, 1.5084230241907974 38.45732869810227 C3.4827963308091974 30.347250390125055, 8.1778433104795 21.554879988055312, 13.847821099319738 15.557268184914399 C19.517798888159977 9.559656381773486, 27.597138773368474 4.802070836025569, 35.52828975723223 2.4716578792567887 C43.45944074109599 0.14124492248800768, 56.97411236532571 1.5386102138282354, 61.43472700250227 1.574790444301712 C65.89534163967883 1.6109706747751886, 62.422236219822636 1.984655609063973, 62.2919775802916 2.6887392620976485 M54.45960069868853 -0.183927792497812 C62.41756066542237 -0.1345778813303724, 72.06794378653422 4.384632502128344, 78.88635089423352 9.340244560666719 C85.70475800193282 14.295856619205093, 91.84432063423225 22.05793697022515, 95.3700433448843 29.549744558732435 C98.89576605553634 37.04155214723972, 100.84667919198623 45.98767990339207, 100.04068715814584 54.29109009171044 C99.23469512430546 62.594500280028804, 95.49836125187113 72.6187250751841, 90.53409114184197 79.37020568864264 C85.56982103181281 86.12168630210118, 77.85518347463889 91.32779512120538, 70.2550664979709 94.79997377246164 C62.65494952130291 98.2721524237179, 53.20122992154553 100.9356769821105, 44.93338928183404 100.20327759618023 C36.665548642122545 99.47087821024996, 27.51949326434853 95.28925065798222, 20.648022659701944 90.40557745688004 C13.776552055055358 85.52190425577786, 7.169701062756266 78.53339836133034, 3.704565653954525 70.9012383895671 C0.23943024515278433 63.269078417803854, -0.9988896785733689 52.909922048918624, -0.1427897931084985 44.6126176263006 C0.7133100923563719 36.31531320368257, 3.8954787355893767 27.9313096317624, 8.841164966743747 21.11741185385894 C13.786851197898118 14.30351407595548, 21.870155538047214 7.261686252577853, 29.531327593817725 3.729230958879832 C37.192499649588235 0.19677566518181067, 50.707351503570905 0.3873111663599514, 54.80819730136682 -0.07731990832918711 C58.90904309916273 -0.5419509830183256, 54.17476198877263 -0.011396628935254172, 54.13640238059319 0.9414445107450007" stroke="#000000" stroke-width="0.9" fill="none"></path></g><g transform="translate(141 72) rotate(0 50 50)"><path d="M53.838548545528326 0.4523740561160281 C61.804250684118074 0.41453687188782595, 71.38968494853128 3.9469782762665444, 78.18974355990285 8.650817551104232 C84.98980217127442 13.35465682594192, 91.07253228275296 21.179762501130746, 94.63890021375778 28.675409705142155 C98.2052681447626 36.17105690915356, 100.2199327263395 45.3201574444729, 99.5879511459318 53.62470077517268 C98.9559695655241 61.929244105872456, 95.50950798611454 71.66422919347383, 90.84701073131164 78.50266968934082 C86.18451347650874 85.34111018520781, 79.08927343178765 91.133855742634, 71.61296761711442 94.65534375037464 C64.1366618024412 98.17683175811528, 54.389233233038816 100.24101507390887, 45.989175843272264 99.63159773578468 C37.58911845350571 99.02218039766049, 28.049600599562165 95.63904707446062, 21.212623278515117 90.99883972162954 C14.37564595746807 86.35863236879845, 8.457172667065622 79.2078701901707, 4.967311916989978 71.79035361879822 C1.4774511669143329 64.37283704742575, -0.3022909161979813 54.834326562724264, 0.2734587780612472 46.4937402933947 C0.8492084723204757 38.15315402406514, 3.7546700928175074 28.642485602987374, 8.421810082545349 21.74683600282083 C13.08895007227319 14.851186402654289, 20.506295277029 8.650468854907206, 28.276298716428297 5.119842692395451 C36.04630215582759 1.5892165298836969, 50.45714040748315 1.2654941094719105, 55.04183071894112 0.5630790277503053 C59.62652103039909 -0.1393360539712999, 55.909590938217804 0.07725129553314025, 55.7844405851761 0.9053522020658207 M48.83461805677013 -0.6788276663272583 C56.83037161264853 -1.7516995249588614, 66.57088056823996 1.4850648524964916, 73.83227779202755 5.68218248533141 C81.09367501581515 9.879300118166327, 87.948472549592 17.230188411296613, 92.40300139949574 24.50387813068225 C96.85753024939947 31.777567850067886, 100.18069047785256 41.175888372716216, 100.55945089144996 49.32432080164522 C100.93821130504735 57.47275323057423, 98.78088022817126 66.08667706430715, 94.67556388108005 73.39447270425629 C90.57024753398885 80.70226834420542, 83.11959215196848 88.63944428033459, 75.92755280890273 93.17109464134005 C68.73551346583699 97.70274500234551, 59.705119183156 100.51352607623566, 51.52332782268555 100.58437487028903 C43.3415364622151 100.65522366434239, 34.29235817386945 97.66225550977713, 26.836804646080044 93.5961874056602 C19.381251118290635 89.53011930154328, 11.352734759531156 83.34783027124661, 6.7900066559490995 76.18796624558752 C2.227278552367042 69.02810221992843, -0.3908654356085085 58.96872578967301, -0.5395639754122996 50.63700325170565 C-0.6882625152160907 42.30528071373829, 1.8893524603711942 33.46543156855918, 5.897815417126353 26.197631017783362 C9.906278373881511 18.92983046700754, 16.466224936870134 11.33725105094463, 23.51121376511865 7.030199947050718 C30.556202593367168 2.723148843156806, 44.04492595262022 1.3164544139358525, 48.16774838661746 0.3553243944198883 C52.290570820614704 -0.6058056250960758, 48.19562690698243 0.39947108514204877, 48.24814836910209 1.263419829954934" stroke="#000000" stroke-width="0.9" fill="none"></path></g><g transform="translate(229.1923828125 207) rotate(0 38.90380859375 6.25)"><text x="77.8076171875" y="10" font-family="var(--view-mode-font)" font-size="16px" fill="#adb5bd" text-anchor="end" style="white-space: pre;" direction="ltr">Made with Eraser</text></g></svg>