<svg version="1.1" xmlns="http://www.w3.org/2000/svg" viewBox="0 0 636 571.5" width="636" height="571.5">
  <!-- svg-source:excalidraw -->
  
  <rect x="0" y="0" width="636" height="571.5" fill="#ffffff"></rect><g transform="translate(10 10) rotate(0 308 266.5)"><path d="M4.326298701298701 0 L611.6737012987013 0 L614.9184253246752 1.0815746753246753 L616 4.326298701298701 L616 528.6737012987013 L614.9184253246752 531.9184253246752 L611.6737012987013 533 L4.326298701298701 533 L1.0815746753246753 531.9184253246752 L0 528.6737012987013 L0 4.326298701298701 L1.0815746753246753 1.0815746753246753 L4.326298701298701 0" stroke="none" stroke-width="0" fill="#ffffff"></path><path d="M4.326298701298701 0 M4.326298701298701 0 C158.16784561894707 0, 312.00939253659544 0, 611.6737012987013 0 M611.6737012987013 0 C614.5579004329004 0, 616 1.442099567099567, 616 4.326298701298701 M616 4.326298701298701 C616 146.50106285819572, 616 288.67582701509275, 616 528.6737012987013 M616 528.6737012987013 C616 531.5579004329004, 614.5579004329004 533, 611.6737012987013 533 M611.6737012987013 533 C439.3631574827165 533, 267.05261366673165 533, 4.326298701298701 533 M4.326298701298701 533 C1.442099567099567 533, 0 531.5579004329004, 0 528.6737012987013 M0 528.6737012987013 C0 415.80490248688625, 0 302.9361036750712, 0 4.326298701298701 M0 4.326298701298701 C0 1.442099567099567, 1.442099567099567 0, 4.326298701298701 0" stroke="#d7d9dc" stroke-width="1" fill="none"></path></g><g transform="translate(256 28) rotate(0 55 55)"><path d="M52.64971112271368 -0.07237057171283823 C61.43519776395098 -1.0381723762337018, 72.77670899208485 2.4700803688045108, 80.97757699053034 6.824260368287092 C89.17844498897583 11.178440367769674, 96.98765402739227 18.302357522576038, 101.85491911338659 26.052709425182652 C106.7221841993809 33.803061327789266, 109.96901362661347 44.10010677977763, 110.1811675064963 53.32637178392678 C110.39332138637911 62.55263678807593, 107.41940113247675 73.37645308978706, 103.1278423926835 81.41029945007756 C98.83628365289026 89.44414581036806, 92.09793773946268 96.81230134900639, 84.4318150677368 101.52944994566978 C76.76569239601093 106.24659854233317, 66.42528090919693 109.37768721138511, 57.131106362328254 109.71319103005794 C47.83693181545958 110.04869484873078, 36.901180041260055 107.77811488879217, 28.66676778652477 103.54247285770674 C20.432355531789483 99.30683082662131, 12.44562542154165 91.99658863234873, 7.724632833916537 84.29933884354534 C3.0036402462914262 76.60208905474195, 0.6608307450505666 66.4842244811544, 0.34081226077410065 57.35897412488644 C0.020793776497634753 48.233723768618475, 1.6348953155428738 37.7673892664304, 5.804521928257742 29.54783670593759 C9.97414854097261 21.32828414544478, 16.682804226603945 12.970912899631191, 25.35857193706331 8.041658761929568 C34.03433964752267 3.1124046242279464, 51.66061738628306 1.123020835853172, 57.85912819101393 -0.027688120272138406 C64.0576389957448 -1.1783970763974487, 62.50286623896067 0.2305776538110097, 62.54963676544854 1.1374050251777064 M70.56637070272149 3.2406143198600432 C79.0791979375791 4.768220815478078, 89.0007760928221 10.235183963563419, 95.3831760561618 16.922601725297532 C101.76557601950151 23.610019487031646, 106.86095126553224 34.466922885646156, 108.86077048275973 43.36512089026472 C110.86058969998723 52.263318894883284, 110.28098001756831 61.64293928257173, 107.38209135952681 70.31178975300892 C104.48320270148531 78.98064022344612, 98.20127040928963 88.8485169526398, 91.46743853451078 95.37822371288789 C84.73360665973192 101.90793047313598, 75.89622428296038 107.32646667447656, 66.97910011085371 109.49003031449746 C58.06197593874705 111.65359395451836, 46.70615895205195 111.33498025319665, 37.9646935018708 108.35960555301324 C29.223228051689645 105.38423085282983, 20.769838469827206 98.65036967982341, 14.530307409766799 91.63778211339704 C8.290776349706391 84.62519454697066, 2.698968659222429 74.97776494603511, 0.5275071415083588 66.28408015445498 C-1.6439543762057114 57.590395362874865, -1.3546569333144873 48.198660733467165, 1.501538303482377 39.475673363916314 C4.357733540279241 30.752685994365464, 10.723103802755567 20.36907268229654, 17.664678562289545 13.946155937149882 C24.606253321823523 7.523239192003223, 34.173043727316866 2.7596574211235465, 43.150986860686245 0.9381728930363593 C52.128929994055625 -0.8833116350508281, 67.01339057841058 2.585068028281474, 71.5323373625058 3.0172487686267573 C76.05128414660102 3.4494295089720404, 70.46903332982134 2.768752312884905, 70.26466756525758 3.5312573351080587" stroke="#000000" stroke-width="0.95" fill="none"></path></g><g transform="translate(287.5 145) rotate(0 23.5 110)"><path d="M-0.8180739050731063 0.754528216086328 C14.31394868073985 -0.9570074471877887, 28.146129385754467 -1.1396443936275318, 46.11322783771902 0.6209545349702239 M-0.21381016494706273 0.16952784033492208 C14.831261281110347 -0.3753064366569743, 29.12826630184427 0.2606847641477361, 46.953759397845715 -0.08010658947750926 M47.10266146654913 0.1355677928819675 C45.57827363896308 73.81152600133284, 47.0247832713894 146.94638342292038, 46.562458790646936 219.4163433183735 M46.654444643305155 -0.12103701693125163 C47.061076828439084 83.99800047482319, 46.36204913200885 167.79868419477188, 46.73423148269487 219.93021516383828 M47.40467944089323 220.28129135724157 C32.70207413742319 219.19684216253924, 17.55686572268605 219.37391018741297, 0.8335569435730577 220.6272232150659 M46.851147066336125 219.7200391110964 C29.656403839215635 219.7554370426899, 12.038392770756033 220.3462040537363, -0.344161216635257 219.99391179950908 M0.466085671247093 220.49895676842655 C-1.0739330299989014 148.53047706552596, -0.09591287014872119 78.17834067402863, 0.5837577846477311 0.7040907306284327 M0.13359715928903315 220.2151180409193 C-0.4077473619345557 170.06584957081998, 0.05241161685760509 120.85240337255505, 0.3978888895803103 0.06323293115956988" stroke="#000000" stroke-width="0.9" fill="none"></path></g><g transform="translate(358 152) rotate(0 118 15.5)"><path d="M0.18068191736533454 -0.5433396579356711 C54.75304211415621 -0.6734137407816585, 110.90690121292272 0.2480424121355715, 236.58110282666308 0.4830810532940465 M0.00666241301933918 -0.10686474347837063 C58.79905756909286 0.9443354665420534, 117.7433808052363 0.5498602154695811, 236.09783465887983 0.2699763881003549 M235.46791245881468 -0.39770055655390024 C236.67979497365187 9.115540195908398, 236.75694934181402 18.05565224811435, 235.25525324884802 31.32957514282316 M235.89203936932608 -0.36760326055809855 C236.4707978569204 12.253732362762094, 236.50690600799862 24.387622631620616, 236.02052068291232 30.553884860593826 M235.91212899239298 31.223051800923034 C185.41608655677393 29.66976652456638, 134.4999001108014 29.867446802965027, 0.2588870897362094 30.676951056565745 M235.90843006334217 30.74551798988124 C184.68151483513057 31.359681553589255, 134.38710331288 31.17071508619331, -0.13379051225539648 31.321361719755178 M0.6324497098103166 31.979942253790796 C0.9229058013902978 22.782928728777915, 0.7755785869108514 14.586211796477436, -0.18529487308114767 -0.3688185000792146 M0.4839379000477493 31.16637320490554 C0.10637950399424881 19.35296128001064, 0.29124272861983624 7.222910885419694, -0.08487025322392583 0.22800662787631154" stroke="#000000" stroke-width="0.9" fill="none"></path></g><g transform="translate(370 372) rotate(333.89186132405086 10 64)"><path d="M0.308311334811151 0.4964426690712571 C4.294585236348212 -0.8273784427903592, 9.867032195441425 0.10063366005197166, 20.91823550220579 0.1459269756451249 M0.19942997070029378 -0.3158843261189759 C6.029776642564684 0.2175526525825262, 12.288144268561155 -0.33431231416761875, 20.050168809015304 -0.30142002226784825 M20.04533954616636 0.5852329963818192 C19.535826793275774 41.73915901724249, 18.82161082919687 84.16544774714858, 20.573864749632776 127.02532952371985 M19.579441722948104 0.23140842793509364 C20.805936860162763 34.81239648042247, 20.88597837300971 68.81868846891449, 20.322602760512382 128.35785269318148 M19.319964460097253 128.00445335451514 C15.338465546257794 128.40896467743443, 8.743127482943235 128.1076734202914, 0.37167443986982107 127.09688695613295 M20.09260977478698 128.36643874226138 C14.704008711967617 128.13814874384553, 8.23845423804596 128.27016458306463, 0.09606715710833669 128.25774077652022 M0.5143577074632049 128.56089695636183 C-0.7957055336609482 78.73913916889578, 0.1878572040423751 29.52745161000638, -0.27589035872370005 0.4964940482750535 M0.47387370141223073 128.35744086978957 C0.4089958992786706 86.69671942768619, 0.7088583883829416 44.57711613057181, -0.058072644751518965 -0.2246348005719483" stroke="#000000" stroke-width="0.9" fill="none"></path></g><g transform="translate(234 372.228235038831) rotate(16.340786752468556 10 64)"><path d="M-0.9362987065687776 -0.0748647814616561 C6.064803340472281 -0.6992849647067487, 10.847177322022617 0.36655310401692986, 20.19125413056463 0.028136485256254673 M-0.19986501662060618 0.31578270671889186 C6.49959563696757 -0.3760629627853632, 13.129869603086263 0.17365316711366177, 19.772056740242988 -0.04909173073247075 M19.44841646309942 0.5110902721062303 C20.300738865695894 46.33502876702696, 18.791546667180956 92.02089906278998, 19.13009890075773 127.00403847638518 M19.80008224816993 -0.22979858936741948 C20.5093018421717 38.006838934402914, 19.69902782233432 74.91818530140445, 19.642316218931228 128.24620402930304 M19.842926821671426 127.92060890141875 C15.653486435301602 127.57013095496222, 11.289446401409805 129.0363653707318, 0.008517912589013577 127.16815858427435 M20.354068991262466 128.26427723048255 C13.560149608645588 128.19041416738182, 7.679373860824851 127.52664171848446, 0.4515791651792824 128.17788236914203 M0.19678681250661612 127.09622650686651 C-0.1499969143047929 101.46205397788435, -0.09794605556875469 72.87713014427572, 0.33758904691785574 -0.23911622818559408 M-0.0944691183976829 127.88118582544848 C0.019859813172370178 94.8933494198136, 0.7911316231079399 61.4118563788943, -0.035917970817536116 0.20363066671416163" stroke="#000000" stroke-width="0.9" fill="none"></path></g><g transform="translate(29 152) rotate(0 118 15.5)"><path d="M-0.8203590784976976 -0.045113362369803706 C92.71879504621752 0.35741653718971816, 186.76810796228827 1.400401055558761, 236.2283973563318 -0.46693170712839766 M0.1795237410211602 -0.17173356757489533 C83.99672094678378 -0.6168651603942533, 168.17873515491857 -0.9417181398530323, 236.40210539107744 0.021059098766784926 M236.59319087211043 -0.08341235760599375 C235.6159265633626 10.92954066535458, 236.69448664746713 20.739543210715055, 236.13670193497092 31.739102981053293 M235.91564903734252 0.2946815607137978 C235.56802179294172 7.0206158075481655, 235.55195919054094 13.606730432342738, 236.30851652799174 31.401322689373046 M236.67939580634592 30.3575233236114 C153.86732856392527 31.91950824218026, 70.59733305209356 32.630299207173294, 0.7737167946994404 30.692888136693533 M236.18314259135545 30.80019731820247 C188.09880925373562 30.796903963930625, 140.66933965609786 30.65320763374896, 0.2740232524487713 31.38142655464112 M0.9048037761822343 30.78308009263128 C-0.8205718891276047 24.091094821412117, 0.25286696389783175 16.851615615561606, -0.8736894791945815 0.1351497983559966 M0.19087619660422206 30.784886282403022 C0.2298369134357199 22.283684816025197, -0.24812735369894653 13.741204987373202, -0.25801599444821477 0.30993199022486806" stroke="#000000" stroke-width="0.9" fill="none"></path></g><g transform="translate(548.1923828125 559) rotate(0 38.90380859375 6.25)"><text x="77.8076171875" y="10" font-family="var(--view-mode-font)" font-size="16px" fill="#adb5bd" text-anchor="end" style="white-space: pre;" direction="ltr">Made with Eraser</text></g></svg>