<svg version="1.1" xmlns="http://www.w3.org/2000/svg" viewBox="0 0 193 197.5" width="193" height="197.5">
  <!-- svg-source:excalidraw -->
  
  <rect x="0" y="0" width="193" height="197.5" fill="#ffffff"></rect><g transform="translate(10 10) rotate(0 86.5 79.5)"><path d="M4.595375722543353 0 L168.40462427745663 0 L171.85115606936418 1.148843930635838 L173 4.595375722543353 L173 154.40462427745663 L171.85115606936418 157.85115606936418 L168.40462427745663 159 L4.595375722543353 159 L1.1488439306358382 157.85115606936418 L0 154.40462427745663 L0 4.595375722543353 L1.148843930635838 1.1488439306358382 L4.595375722543353 0" stroke="none" stroke-width="0" fill="#ffffff"></path><path d="M4.595375722543353 0 M4.595375722543353 0 C62.72171361656009 0, 120.84805151057682 0, 168.40462427745663 0 M168.40462427745663 0 C171.46820809248555 0, 173 1.5317919075144508, 173 4.595375722543353 M173 4.595375722543353 C173 52.72614659756055, 173 100.85691747257775, 173 154.40462427745663 M173 154.40462427745663 C173 157.46820809248555, 171.46820809248555 159, 168.40462427745663 159 M168.40462427745663 159 C132.86393999750752 159, 97.32325571755841 159, 4.595375722543353 159 M4.595375722543353 159 C1.5317919075144508 159, 0 157.46820809248555, 0 154.40462427745663 M0 154.40462427745663 C0 94.9314051913442, 0 35.45818610523176, 0 4.595375722543353 M0 4.595375722543353 C0 1.5317919075144508, 1.5317919075144508 0, 4.595375722543353 0" stroke="#d7d9dc" stroke-width="0.95" fill="none"></path></g><g transform="translate(31 33) rotate(0 60 58.5)"><path d="M52.92098254422874 -0.1006100790986082 C61.53217955346059 -1.9776235833654532, 72.78119613447134 0.8745009778024659, 81.48904586723071 4.06690487522652 C90.19689559999009 7.259308772650574, 98.98334445497456 12.419145714860548, 105.16808094078498 19.053813305445715 C111.3528174265954 25.68848089603088, 116.43368396729721 35.05850103865544, 118.59746478209323 43.87491041873752 C120.76124559688924 52.6913197988196, 120.52653434998771 63.09643557529988, 118.15076582956107 71.95226958593818 C115.77499730913442 80.80810359657649, 110.57853812761995 90.07911915614768, 104.34285365953339 97.00991448256737 C98.10716919144683 103.94070980898705, 89.43555674000577 110.19150157364145, 80.73665902104173 113.53704154445627 C72.0377613020777 116.8825815152711, 61.185727627660384 118.19149820446857, 52.14946734574919 117.08315430745635 C43.11320706383799 115.97481041044414, 34.091666886621944 112.22619898951527, 26.519097329574542 106.88697816238296 C18.946527772527144 101.54775733525065, 11.028838394021982 92.99586774027699, 6.714050003464791 85.04782934466253 C2.399261612907602 77.09979094904807, 0.666363222856584 68.03994251932525, 0.6303669862314081 59.19874778869623 C0.5943707496062322 50.35755305806721, 2.3654264688590168 40.21553882388056, 6.498072583713736 32.000660960888396 C10.630718698568455 23.785783097896235, 17.340058813313384 15.163042357497417, 25.42624367535972 9.909480610743273 C33.51242853740606 4.655918863989129, 49.559655219249535 2.035187036230557, 55.01518175599175 0.47929048036353095 C60.47070829273396 -1.076606075503495, 58.10604744821534 -0.26436392699638134, 58.15940289581298 0.5741012755411177 M58.76740967675077 0.8903367410106213 C67.2737387826901 -0.2200814521580341, 76.47694258517393 2.0172250953687354, 84.8189186977076 5.714488924824515 C93.16089481024127 9.411752754280295, 103.07030113491204 15.69774886631, 108.81926635195276 23.073919717745298 C114.56823156899348 30.450090569180595, 118.07063927835003 41.09933177540436, 119.31270999995195 49.97151403343629 C120.55478072155387 58.84369629146823, 119.1946327245119 67.73733550000115, 116.27169068156428 76.3070132659369 C113.34874863861666 84.87669103187265, 108.44133886109239 94.9638143268155, 101.77505774226623 101.38958062905081 C95.10877662344006 107.81534693128613, 85.09080089595352 112.56015761247721, 76.27400396860727 114.86161107934879 C67.45720704126103 117.16306454622037, 57.93330029578133 116.90875879305148, 48.87427617818871 115.19830143028025 C39.81525206059609 113.48784406750903, 29.26931560786843 110.28162580237195, 21.919859263051542 104.59886690272148 C14.570402918234656 98.91610800307102, 8.35295493736898 89.68305626334802, 4.777538109287384 81.10174803237744 C1.2021212812057898 72.52043980140687, -0.32814915613874385 62.28147679255394, 0.46735829456197564 53.111017516898 C1.2628657452626952 43.940558241242066, 4.5481533202091144 33.62838969355574, 9.550582813491701 26.07899237844184 C14.553012306774288 18.52959506332794, 22.31024241827585 12.302776625513989, 30.481935254257497 7.814633626214608 C38.653628090239145 3.326490626915228, 54.07238040192361 0.20409516978411912, 58.58073982938158 -0.849865617354439 C63.089099256839546 -1.9038264044929971, 57.625560398061815 0.5219457120011283, 57.5320918190053 1.4908689033832587" stroke="none" stroke-width="0" fill="#fcc2d7"></path><path d="M78.20166042121048 3.2822115587037146 C86.8820168973764 5.152573649982167, 96.77014384637805 10.69265038891783, 103.34297681695625 17.149858312227515 C109.91580978753446 23.6070662355372, 115.06952535693948 33.36765615830353, 117.63865824467973 42.02545909856182 C120.20779113241998 50.683262038820104, 120.54113446647189 60.31121528416452, 118.7577741433978 69.09667595377722 C116.9744138203237 77.88213662338993, 112.73659045362939 87.49212314782997, 106.93849630623515 94.73822311623803 C101.14040215884091 101.98432308464609, 92.51537494019131 108.92953179900502, 83.96920925903235 112.57327576422554 C75.4230435778734 116.21701972944606, 64.9630180256185 117.34914432853598, 55.661502219281466 116.6006869075612 C46.359986412944444 115.85222948658641, 36.07638265928222 112.88477596610299, 28.160114421010206 108.08253123837679 C20.2438461827382 103.28028651065058, 12.79090777000794 95.5457986625524, 8.163892789649424 87.78721854120394 C3.536877809290907 80.02863841985548, 0.8476632047012533 70.50861810336201, 0.3980245388591044 61.53105051028601 C-0.05161412698304463 52.553482917210005, 1.5451912503484166 42.252824388423676, 5.46606079459653 33.92181298274794 C9.386930338844643 25.5908015770722, 16.522535006150814 17.11278497883593, 23.923241804347782 11.544982076231591 C31.32394860254475 5.9771791736272535, 40.5925455249912 1.8531096465770471, 49.87030158377833 0.5149955671219146 C59.148057642565455 -0.8231185123332179, 74.3025700412533 2.6642939747322436, 79.58977815707055 3.5162975995007955 C84.8769862728878 4.368301224269348, 81.86401998413078 4.770750334910328, 81.59355027868185 5.627017315733227 M42.61157777102936 3.2834025399280478 C50.681131638442274 -0.19031977224861274, 62.11117182862489 -0.26256841527187547, 71.25384296703236 1.216990119540263 C80.39651410543982 2.6965486543524015, 90.27389197263567 6.631938213813295, 97.46760460147416 12.160753748800879 C104.66131723031266 17.68956928378846, 110.73426771570111 25.921900621959857, 114.41611874006333 34.38988332946577 C118.09796976442554 42.85786603697168, 119.967053650957 53.82193090522359, 119.55871074764748 62.96864999383635 C119.15036784433796 72.11536908244912, 116.7131000931536 81.56790858188066, 111.96606132020622 89.27019786114235 C107.21902254725885 96.97248714040404, 99.21543891279872 104.63270027805628, 91.07647810996318 109.18238566940654 C82.93751730712764 113.73207106075681, 72.57829838051481 116.25528693096487, 63.132296503192975 116.56831020924393 C53.686294625871135 116.881333487523, 42.85210611706301 114.69659599243319, 34.40046684603213 111.06052533908093 C25.948827575001253 107.42445468572866, 18.001947246754682 101.89794470625215, 12.422460877007694 94.75188628913034 C6.842974507260707 87.60582787200853, 2.4238246424008665 77.24340073913619, 0.9235486275502112 68.18417483635011 C-0.5767273873004441 59.12494893356403, 0.7579348565948827 48.83683059065346, 3.420804787903762 40.39653087241385 C6.083674719212642 31.956231154174233, 10.303039414680903 23.96140297841897, 16.900768215403488 17.542376526912413 C23.498497016126073 11.123350075405856, 38.791207417883115 4.108634141634772, 43.00717759223927 1.8823721633745123 C47.22314776659543 -0.34388981488574677, 41.83588654330308 3.044106240975747, 42.19658926154045 4.18480465735086" stroke="#000000" stroke-width="0.95" fill="none"></path></g><g transform="translate(105.1923828125 185) rotate(0 38.90380859375 6.25)"><text x="77.8076171875" y="10" font-family="var(--view-mode-font)" font-size="16px" fill="#adb5bd" text-anchor="end" style="white-space: pre;" direction="ltr">Made with Eraser</text></g></svg>